<?xml version="1.0" encoding="UTF-8"?>
<!DOCTYPE svg PUBLIC "-//W3C//DTD SVG 1.1//EN" "http://www.w3.org/Graphics/SVG/1.1/DTD/svg11.dtd">
<!-- Creator: CorelDRAW -->
<svg xmlns="http://www.w3.org/2000/svg" xml:space="preserve" width="246.944mm" height="105.833mm" style="shape-rendering:geometricPrecision; text-rendering:geometricPrecision; image-rendering:optimizeQuality; fill-rule:evenodd; clip-rule:evenodd"
viewBox="0 0 246.944 105.833"
 xmlns:xlink="http://www.w3.org/1999/xlink">
 <defs>
  <style type="text/css">
   <![CDATA[
    .fil0 {fill:#1E1A16}
    .fil1 {fill:#E57714}
   ]]>
  </style>
 </defs>
 <g id="Capa_x0020_1">
  <metadata id="CorelCorpID_0Corel-Layer"/>
  <g id="_315343200">
   <path id="_316604432" class="fil0" d="M168.378 48.7655l0 5.4174c-0.0141,1.7395 -3.8792,2.5269 -5.4174,2.5282l-23.8366 0 0 -10.8348 22.7262 0.0252c1.5749,0 6.5013,0.0158 6.5278,2.864zm-35.0323 -6.5009l0.0158 30.3361c0.0158,0.7111 0.3579,1.3599 1.0025,1.3599l4.1513 0c0.3963,-0.0145 0.9303,-0.7153 1.002,-1.4315l-0.032 -10.0393c4.8996,2.0224 22.0787,9.4668 27.1608,11.5425 1.5032,0.5008 4.7959,1.1453 5.7979,-0.2146 0.2862,-0.5012 0.4295,-1.2886 0.4295,-1.9328 0.0184,-0.421 -0.4295,-1.2886 -0.8838,-1.4499 -0.7316,-0.3041 -20.9474,-8.9199 -20.9474,-9.0287l14.8074 0c5.0198,-0.0435 8.3121,-2.907 8.307,-5.4174l0.0051 -8.3692c-0.1429,-5.87 -7.3011,-6.4424 -10.8399,-6.4386l-28.8927 0c-1.0677,-0.0038 -1.0677,0.1395 -1.0835,1.0835z"/>
   <path id="_316604544" class="fil0" d="M94.7015 49.1268c0.0072,-1.9366 1.0097,-2.7958 3.6117,-2.8892l20.9474 -0.0499c1.3723,-0.049 4.2682,-0.0375 4.3664,2.5769l0 18.0382c0.0324,1.8402 -2.1474,2.2907 -3.8652,2.2907l-21.4738 0c-1.8862,-0.0401 -3.5793,-1.4316 -3.5865,-2.6311l0 -17.3356zm-5.7186 -2.08l-0.0004 20.9009c0.1433,5.2971 4.6926,5.9268 10.0213,6.0129l17.3673 0.0862c1.6729,0.9158 7.3992,3.9223 9.3904,4.3339 0.7286,0.0179 2.3034,-0.4099 2.3034,-3.2747 -0.1433,-1.2883 -2.9944,-2.083 -3.3869,-2.504 2.9382,0 5.1047,-2.3636 5.0561,-5.4174l0 -19.8635c-0.0943,-4.7123 -3.1007,-6.0009 -9.39,-6.14l-22.1994 0.1395c-6.0513,0.1391 -9.1025,0.6595 -9.1618,5.7262z"/>
   <path id="_97142560" class="fil1" d="M205.227 54.9208c0,-1.2886 2.6162,-1.8611 3.5789,-1.8611l17.0358 0c2.7535,0 3.8656,1.5745 3.933,2.2066l0 3.6118 -24.5588 0 0.0111 -3.9573zm5.0105 -6.872c-3.5891,0 -10.7367,2.3837 -10.7367,6.872l-0.1433 8.5894c0.0635,5.1264 1.4315,10.5221 9.4702,10.5366 3.2504,0 5.89,-0.0862 9.1405,-0.0862 0.5724,0 1.002,-0.4295 1.002,-1.002l0 -2.434c0,-0.8587 -0.4296,-1.1453 -1.4316,-1.1449l-6.9053 -0.0281c-1.0399,0.0277 -5.4174,-0.1579 -5.4174,-5.4174l28.9294 0.0055c0.7158,0 1.4315,-0.5729 1.4315,-1.2886l-0.0234 -8.4682c0.023,-1.6961 -0.549,-6.1341 -9.39,-6.1396l-15.9259 0.0055z"/>
   <path id="_316944392" class="fil1" d="M2.2286 53.4888l0.0163 4.6671c-0.1596,4.2089 4.3885,5.2911 9.7184,5.3543l15.6043 0c1.002,0 2.2898,1.002 2.2902,2.1473l0 1.4316c0,1.0736 -0.7154,2.2906 -2.004,2.2906l-24.194 0c-0.7158,0 -1.1449,0.8587 -1.1449,1.5028 0,1.0976 0,0.9786 0,2.0761 0,0.6441 0.4295,1.002 1.2882,1.002l25.1244 0c5.0821,-0.0716 6.0841,-4.1518 6.0841,-6.1558l0 -3.2926c0,-3.1494 -2.8631,-6.0129 -7.4854,-5.9954l-16.6135 0c-1.3829,0.1258 -2.9578,-0.59 -2.9578,-1.8782l0 -1.2887c0,-1.2882 0.6339,-2.1874 1.8611,-2.2906l9.7347 0c1.0404,-0.0397 1.5748,-1.0733 1.5748,-1.7178l0 -1.2882c0,-0.5725 -0.7157,-1.7182 -1.7182,-1.7178l-8.7715 0.0158c-3.4684,-0.0162 -8.2643,0.6995 -8.4072,5.1375z"/>
   <path id="_316944368" class="fil0" d="M207.383 22.7624c-0.0085,-1.1978 0.8506,-1.9136 1.9243,-1.9136l14.2439 0c1.016,-0.0055 2.0044,0.5729 2.0044,1.5745l0 13.0277c0,0.7158 -0.874,1.467 -1.5028,1.4316l-15.2468 0c-0.7157,0 -1.4315,-1.002 -1.423,-1.4798l0 -12.6404zm-5.019 -3.2023l0 18.7541c0,1.1453 1.4316,2.8631 2.4907,2.8669l23.1144 0c1.2371,-0.0038 2.597,-1.2921 2.5974,-2.4374l0 -18.8969c-0.0004,-1.2887 -1.7182,-3.1498 -3.0065,-3.1493l-22.0466 0c-1.3522,0.0029 -3.1494,1.5744 -3.1494,2.8626z"/>
   <path id="_316944512" class="fil1" d="M57.4878 48.0488c-7.1582,0 -8.3146,3.8123 -8.3031,6.5854l-0.0005 18.4673c-0.0004,0.3579 0.3404,0.8446 0.8592,0.8591l4.1517 0c0.4296,0 0.8591,-0.4295 0.8591,-0.8591l-0.1433 -18.1807c0,-1.2886 1.3488,-1.83 2.1473,-1.8615l19.6127 0c1.3872,-0.0397 2.5769,0.8591 2.5769,1.8615l0 17.8945c0,0.5729 0.4296,1.1453 1.002,1.1453l3.5793 0c0.5008,0 1.1449,-0.5724 1.1449,-1.0736l-0.0234 -18.7041c0.0234,-2.8414 -1.156,-5.9852 -8.1364,-6.1341l-19.3264 0z"/>
   <path id="_195272" class="fil0" d="M48.0393 28.8657l4.2947 0 0 -1.4316c0,-0.8591 -0.5729,-1.7177 -1.8611,-1.7177l-17.4653 0c-0.8591,0 -1.8611,1.2165 -1.8611,2.1473l0 13.886c0,1.1454 1.0595,2.2604 2.2906,2.2907l16.8929 0c1.002,0 2.1473,-0.5725 2.1473,-1.7178l0 -1.1453 -4.7263 0.0038c-0.4274,-0.0038 -1.1436,-0.505 -1.1436,-1.0058l0 -10.1643c0,-0.5728 0.4999,-1.1816 1.4319,-1.1453z"/>
   <path id="_316590336" class="fil0" d="M107.593 52.6297c0,-0.5724 0.2145,-1.002 0.8591,-1.002 2.3862,0 4.3424,0 6.7286,0 0.5008,0 0.8587,0.4296 0.8587,0.8591 0,1.9567 0,3.7696 0,5.7263 0,0.4295 -0.2862,0.7157 -0.7158,0.7157 -2.5291,0 -4.4857,0 -7.0149,0 -0.5012,0 -0.7157,-0.3579 -0.7157,-0.7157 0.0111,-2.1056 0,-3.4356 0,-5.5834zm-8.5894 -2.2902l0 14.316c0.1429,0.8591 0.8587,1.6461 1.9324,1.7178l17.2507 0c0.869,-0.0892 1.7831,-0.7141 1.7178,-2.5769l0 -13.314c0,-1.4316 -0.8454,-2.0019 -2.2902,-2.004l-16.4633 0c-1.4116,0.0738 -2.1073,0.7733 -2.1474,1.8611z"/>
   <path id="_319412864" class="fil1" d="M180.676 42.3938l-0.0179 6.0108 -2.8895 0c-1.3156,0.0738 -1.4585,0.7179 -1.4444,1.4443l-0.0145 2.0655c-0.0145,0.4709 0.5729,1.2165 1.098,1.185l3.2504 0 0 19.8639c0.0184,0.6394 0.0896,1.069 0.7222,1.0835l4.3339 0c0.4735,-0.0145 0.6881,-0.1578 0.7222,-0.7226l0 -20.2248 10.1126 0c0.8054,-0.0397 1.0916,-0.3263 1.0835,-1.0835l0 -2.167c0.0081,-1.0843 -0.4931,-1.4422 -1.0835,-1.4443l-10.1126 0 0 -6.14c-0.0337,-0.6578 -0.3204,-1.0873 -1.0835,-1.0835l-3.6113 0c-0.9222,-0.0038 -1.0472,0.7725 -1.0656,1.2127z"/>
   <path id="_319412984" class="fil1" d="M238.87 42.3226l-0.0657 31.0016c-0.006,0.4219 0.2803,0.7081 0.7222,0.7226l4.3339 0c0.3779,-0.0145 0.7358,-0.2295 0.7222,-1.0835l0.0136 -30.784c0,-0.7158 -0.5724,-1.002 -1.0971,-0.9982 -1.2038,0 -2.4075,0 -3.6113,0 -0.7316,-0.0038 -1.0178,0.6407 -1.0178,1.1415z"/>
   <path id="_319414376" class="fil1" d="M39.02 49.9099l0 21.9034c0,1.2886 0.7158,2.1473 1.5749,2.1473l2.7202 0c1.1449,0 1.5745,-1.002 1.5745,-1.8611l0 -22.3329c0,-0.8591 -1.0323,-1.7122 -2.004,-1.7178l-2.004 0c-1.1458,0 -1.8616,0.7158 -1.8616,1.8611z"/>
   <path id="_319416000" class="fil0" d="M210.954 25.1435l0 7.3011c0,0.5008 0.5012,1.1453 1.1248,1.1522l8.6098 -0.0069c0.7158,0 1.1454,-0.2862 1.1454,-1.002l0 -7.3011c0,-0.4295 -0.5725,-1.0024 -1.002,-1.0024 -3.0065,0 -6.0125,0 -9.0189,0 -0.4296,0 -0.8591,0.4295 -0.8591,0.8591z"/>
   <path id="_319417488" class="fil0" d="M49.1842 32.6596l0.0116 5.2711c-0.0116,0.3118 0.4897,0.813 0.9909,0.8126l6.442 0.0004c0.3579,0 0.8591,-0.3579 0.8736,-0.813l-0.0145 -5.3428c0,-0.3579 -0.5729,-1.1453 -1.0024,-1.1453l-6.442 0c-0.4296,0 -0.8592,0.7158 -0.8592,1.217z"/>
  </g>
 </g>
</svg>
